<svg xmlns="http://www.w3.org/2000/svg" version="1.1" xmlns:xlink="http://www.w3.org/1999/xlink" xmlns:svgjs="http://svgjs.dev/svgjs" width="1000" height="1052" viewBox="0 0 1000 1052"><g transform="matrix(1,0,0,1,-0.27985074626838014,-1.4884680851062058)"><svg viewBox="0 0 134 141" data-background-color="#ffffff" preserveAspectRatio="xMidYMid meet" height="1052" width="1000" xmlns="http://www.w3.org/2000/svg" xmlns:xlink="http://www.w3.org/1999/xlink"><g id="tight-bounds" transform="matrix(1,0,0,1,0.037499999999965894,0.19949999999997203)"><svg viewBox="0 0 133.9249896569921 140.60052000000002" height="140.60052000000002" width="133.9249896569921"><g><svg viewBox="0 0 133.9249896569921 140.60052000000002" height="140.60052000000002" width="133.9249896569921"><g><svg viewBox="0 0 133.9249896569921 140.60052000000002" height="140.60052000000002" width="133.9249896569921"><g><path d="M0 140.601v-140.601h133.925v140.601z" fill="#7a26c1" stroke="transparent" stroke-width="0" rx="0%" data-fill-palette-color="tertiary"></path><path d="M3.283 137.317v-134.034h127.359v134.034z" fill="#ffffff" stroke="transparent" stroke-width="0" rx="0%" data-fill-palette-color="quaternary"></path><path d="M9.85 130.751v-120.901h114.225v120.901z" fill="#7a26c1" stroke="transparent" stroke-width="0" data-fill-palette-color="tertiary"></path></g><g transform="matrix(1,0,0,1,19.69974,19.69974)" id="textblocktransform"><svg viewBox="0 0 94.5255096569921 101.20104000000002" height="101.20104000000002" width="94.5255096569921" id="textblock"><g><svg viewBox="0 0 94.5255096569921 101.20104000000002" height="101.20104000000002" width="94.5255096569921"><g transform="matrix(1,0,0,1,0,0)"><svg width="94.5255096569921" viewBox="2.5399999618530273 -36.43000030517578 34.56999969482422 37.02000045776367" height="101.20104000000002" data-palette-color="#ffffff"><path d="M2.54-3.32L2.54-3.32 2.54-35.84Q2.54-36.01 2.7-36.13 2.86-36.25 3.2-36.3 3.54-36.35 3.8-36.38 4.05-36.4 4.53-36.41 5-36.43 5.18-36.43L5.18-36.43 25-36.43Q27.44-36.43 29.61-35.66 31.79-34.89 33.47-33.42 35.16-31.96 36.13-29.64 37.11-27.32 37.11-24.41L37.11-24.41Q37.11-22.27 36.61-20.48 36.11-18.7 35.29-17.44 34.47-16.19 33.29-15.19 32.1-14.18 30.87-13.57 29.64-12.96 28.15-12.54 26.66-12.11 25.4-11.91 24.15-11.72 22.75-11.62L22.75-11.62 18.07-11.62Q17.87-7.79 17.87-3.03L17.87-3.03 17.87-0.29Q17.8 0.59 17.04 0.59L17.04 0.59 3.17 0.59Q2.54-1.1 2.54-3.32ZM16.31-20.41L16.31-20.41 17.09-19.34Q18.09-19.34 19.01-19.48 19.92-19.63 20.8-20 21.68-20.36 22.31-20.94 22.95-21.51 23.34-22.4 23.73-23.29 23.73-24.41L23.73-24.41Q23.73-25.27 23.5-25.94 23.27-26.61 22.94-27.04 22.61-27.47 22.03-27.78 21.46-28.1 20.96-28.26 20.46-28.42 19.69-28.5 18.92-28.59 18.42-28.6 17.92-28.61 17.14-28.61L17.14-28.61Q16.31-28.22 16.31-20.41Z" opacity="1" transform="matrix(1,0,0,1,0,0)" fill="#ffffff" class="undefined-text-0" data-fill-palette-color="quaternary" id="text-0"></path></svg></g></svg></g></svg></g></svg></g><g></g></svg></g><defs></defs></svg><rect width="133.9249896569921" height="140.60052000000002" fill="none" stroke="none" visibility="hidden"></rect></g></svg></g></svg>